<svg width="2304" height="576" fill="none" xmlns="http://www.w3.org/2000/svg">
  <path fill="#fff" d="M0 0h2304v576H0z"/>
  <path d="M95 124.8c-5.76-19.9 14.6-37.3 33.24-28.42l326.09 155.11c15.68 7.46 18.47 28.69 5.24 40L234.04 484.24c-13.22 11.3-33.65 5.16-38.49-11.58L95 124.8Z" fill="#59CAFC"/>
  <circle cx="104" cy="104" r="48" fill="#FF6E83"/>
  <path d="M310.2 119.72a28 28 0 0 1 36.79-14.65l95.52 41.13a28 28 0 0 1 14.65 36.79l-41.13 95.52a28 28 0 0 1-36.79 14.65l-95.52-41.13a28 28 0 0 1-14.65-36.79l41.13-95.52Z" fill="#BEA4FF"/>
  <path d="M202.18 372.25c15.66-14.1 40.7-6.5 45.88 13.93l29.1 114.97c5.36 21.12-14.42 40-35.27 33.66l-117.23-35.6c-20.86-6.33-26.8-33-10.6-47.6l88.12-79.36Z" fill="#FFB636"/>
  <path d="M927.4 576C986.58 330.5 537.28 326 578.7 0H2304v576H927.4Z" fill="#59CAFC"/>
  <path d="M1083.68 576H566.32C590.86 455.6 697.35 365 825 365s234.14 90.6 258.68 211Z" fill="#FF6E83"/>
  <path d="m2304 205.15-453.5-137.7c-36.78-11.16-63.03-36.7-76.7-67.45H2304v205.15Z" fill="#FFB636"/>
  <path d="M2304 457.21V576h-433.88l59.55-138.33c28.41-65.98 104.93-96.44 170.91-68.04L2304 457.21Z" fill="#BEA4FF"/>
  <path d="M1387.79 262.1h7.74l10.36 25.29h.41l10.36-25.3h7.74V297h-6.07v-23.98h-.32l-9.65 23.88h-4.53l-9.65-23.93h-.32V297h-6.07v-34.9Zm50.76 35.43c-1.66 0-3.16-.3-4.48-.89a7.3 7.3 0 0 1-3.14-2.66 7.79 7.79 0 0 1-1.14-4.33c0-1.47.27-2.7.82-3.66a6.23 6.23 0 0 1 2.23-2.32c.94-.58 2-1.02 3.19-1.31 1.19-.3 2.42-.53 3.69-.67 1.54-.16 2.78-.3 3.74-.42a5.54 5.54 0 0 0 2.08-.62c.44-.28.66-.72.66-1.3v-.11c0-1.29-.38-2.28-1.14-2.98-.76-.7-1.86-1.06-3.29-1.06-1.51 0-2.71.33-3.6.99a4.95 4.95 0 0 0-1.77 2.33l-5.76-.81a9.1 9.1 0 0 1 2.25-4 9.74 9.74 0 0 1 3.83-2.41c1.52-.55 3.19-.82 5.02-.82 1.26 0 2.51.14 3.76.44s2.39.78 3.43 1.47a7.45 7.45 0 0 1 2.49 2.74c.63 1.16.95 2.6.95 4.35V297h-5.93v-3.6h-.2a7.64 7.64 0 0 1-4.13 3.56c-1.01.38-2.2.57-3.56.57Zm1.6-4.54a6.7 6.7 0 0 0 3.22-.73 5.43 5.43 0 0 0 2.1-1.98c.5-.81.75-1.7.75-2.67v-3.09c-.19.16-.52.31-.99.45-.45.13-.97.25-1.53.35-.57.1-1.13.2-1.69.28l-1.45.2c-.92.13-1.74.33-2.47.62-.73.28-1.3.68-1.72 1.19-.42.5-.63 1.15-.63 1.94 0 1.14.41 2 1.24 2.57.83.58 1.89.87 3.17.87Zm29.81 14.37c-2.21 0-4.12-.3-5.71-.9a10.08 10.08 0 0 1-3.83-2.39c-.97-1-1.64-2.1-2.01-3.32l5.55-1.35c.25.52.62 1.02 1.09 1.52.48.51 1.12.93 1.93 1.26a8.1 8.1 0 0 0 3.09.51c1.75 0 3.19-.42 4.34-1.27 1.15-.85 1.72-2.23 1.72-4.16v-4.96h-.3a8.96 8.96 0 0 1-1.4 1.96c-.6.67-1.4 1.23-2.4 1.68-.99.46-2.24.69-3.74.69-2.01 0-3.83-.48-5.47-1.42a10.2 10.2 0 0 1-3.89-4.26c-.95-1.9-1.43-4.27-1.43-7.13 0-2.87.48-5.3 1.43-7.27.97-2 2.27-3.5 3.91-4.52a10.01 10.01 0 0 1 5.47-1.55c1.53 0 2.8.26 3.78.78 1 .51 1.8 1.13 2.39 1.86.59.71 1.04 1.4 1.35 2.03h.34v-4.33h6.08v26.6c0 2.25-.53 4.1-1.6 5.56a9.64 9.64 0 0 1-4.38 3.3c-1.85.72-3.95 1.08-6.31 1.08Zm.05-15.58c1.31 0 2.42-.31 3.35-.95a5.9 5.9 0 0 0 2.09-2.75c.48-1.19.72-2.62.72-4.29 0-1.65-.24-3.1-.72-4.33a6.14 6.14 0 0 0-2.08-2.88 5.38 5.38 0 0 0-3.36-1.04c-1.37 0-2.52.36-3.44 1.07a6.54 6.54 0 0 0-2.08 2.95c-.46 1.24-.7 2.65-.7 4.23 0 1.6.24 3 .7 4.21a6.24 6.24 0 0 0 2.1 2.8c.93.65 2.07.98 3.42.98Zm18.57 5.22v-26.18h6.17V297h-6.17Zm3.1-29.9c-.98 0-1.82-.32-2.52-.97a3.12 3.12 0 0 1-1.06-2.37c0-.93.35-1.72 1.06-2.37.7-.66 1.54-.99 2.52-.99.99 0 1.83.33 2.52 1a3.08 3.08 0 0 1 1.06 2.36c0 .92-.35 1.71-1.06 2.37-.69.65-1.53.97-2.52.97Zm20.83 30.41c-2.61 0-4.86-.57-6.73-1.72a11.5 11.5 0 0 1-4.31-4.76c-1-2.03-1.5-4.37-1.5-7.02 0-2.66.51-5 1.53-7.04a11.45 11.45 0 0 1 4.33-4.77 12.5 12.5 0 0 1 6.65-1.72c2.12 0 4 .39 5.64 1.17a9.66 9.66 0 0 1 3.94 3.3 9.74 9.74 0 0 1 1.67 4.94h-5.9a5.69 5.69 0 0 0-1.7-3.16 4.95 4.95 0 0 0-3.57-1.28c-1.26 0-2.37.35-3.32 1.03a6.55 6.55 0 0 0-2.23 2.9 11.68 11.68 0 0 0-.79 4.53c0 1.78.26 3.32.79 4.6a6.64 6.64 0 0 0 2.2 2.95 5.6 5.6 0 0 0 3.35 1.02 5.6 5.6 0 0 0 2.44-.5 4.92 4.92 0 0 0 1.83-1.53c.48-.65.82-1.46 1-2.4h5.9c-.15 1.85-.69 3.5-1.64 4.93a9.63 9.63 0 0 1-3.85 3.34c-1.62.8-3.53 1.2-5.73 1.2Zm22.46-35.42V297h-6.17v-34.9h6.17Zm17.93 35.42a13.5 13.5 0 0 1-6.8-1.63 11.05 11.05 0 0 1-4.38-4.68 15.68 15.68 0 0 1-1.53-7.14c0-2.7.51-5.05 1.53-7.09a11.58 11.58 0 0 1 4.33-4.77 12.14 12.14 0 0 1 6.53-1.72c1.61 0 3.13.26 4.57.78a10.3 10.3 0 0 1 3.81 2.39 11.15 11.15 0 0 1 2.63 4.12c.64 1.66.95 3.64.95 5.94v1.89h-21.46v-4.16h15.55a6.63 6.63 0 0 0-.77-3.16 5.61 5.61 0 0 0-5.2-3 6.26 6.26 0 0 0-5.55 3.3 6.76 6.76 0 0 0-.8 3.23v3.63c0 1.53.27 2.83.83 3.92a5.99 5.99 0 0 0 2.34 2.5c1 .56 2.17.84 3.51.84.89 0 1.71-.12 2.43-.37a4.89 4.89 0 0 0 3.11-3l5.76.65a9.07 9.07 0 0 1-2.08 3.99c-1.01 1.12-2.31 2-3.89 2.62-1.58.62-3.38.92-5.42.92Zm37.56-19.77-5.63.61a4.65 4.65 0 0 0-.83-1.6c-.39-.5-.91-.9-1.57-1.21a5.73 5.73 0 0 0-2.42-.46 5.9 5.9 0 0 0-3.24.84c-.86.55-1.29 1.27-1.28 2.16-.01.76.27 1.38.84 1.86.58.48 1.53.87 2.86 1.17l4.47.96c2.47.53 4.31 1.38 5.52 2.54a6.07 6.07 0 0 1 1.84 4.55 7.08 7.08 0 0 1-1.45 4.36 9.24 9.24 0 0 1-3.94 2.94c-1.68.7-3.61 1.05-5.79 1.05-3.21 0-5.79-.67-7.74-2.01a8.05 8.05 0 0 1-3.49-5.64l6.01-.58a4.22 4.22 0 0 0 1.74 2.68c.89.6 2.04.9 3.46.9 1.47 0 2.64-.3 3.53-.9.9-.6 1.35-1.35 1.35-2.24 0-.75-.29-1.37-.87-1.86a6.1 6.1 0 0 0-2.66-1.12l-4.47-.94c-2.51-.52-4.37-1.4-5.57-2.64a6.48 6.48 0 0 1-1.79-4.74 6.7 6.7 0 0 1 1.31-4.2 8.6 8.6 0 0 1 3.73-2.75 14.5 14.5 0 0 1 5.54-1c3.07 0 5.49.66 7.25 1.97a8.25 8.25 0 0 1 3.29 5.3Zm26.34 0-5.62.61a4.51 4.51 0 0 0-2.41-2.81 5.7 5.7 0 0 0-2.42-.46c-1.28 0-2.36.28-3.24.84-.86.55-1.29 1.27-1.27 2.16-.02.76.26 1.38.83 1.86.58.48 1.53.87 2.86 1.17l4.47.96c2.48.53 4.32 1.38 5.52 2.54a6.03 6.03 0 0 1 1.84 4.55 7.08 7.08 0 0 1-1.45 4.36 9.26 9.26 0 0 1-3.93 2.94c-1.68.7-3.62 1.05-5.8 1.05-3.2 0-5.78-.67-7.74-2.01a8.08 8.08 0 0 1-3.49-5.64l6.02-.58a4.25 4.25 0 0 0 1.73 2.68c.89.6 2.04.9 3.46.9 1.47 0 2.65-.3 3.53-.9.9-.6 1.35-1.35 1.35-2.24 0-.75-.29-1.37-.87-1.86a6.04 6.04 0 0 0-2.66-1.12l-4.46-.94c-2.52-.52-4.37-1.4-5.58-2.64a6.52 6.52 0 0 1-1.79-4.74 6.76 6.76 0 0 1 1.31-4.2 8.64 8.64 0 0 1 3.74-2.75c1.6-.66 3.45-1 5.54-1 3.07 0 5.48.66 7.24 1.97a8.25 8.25 0 0 1 3.29 5.3Zm39.84-15.65h6.32v22.8c0 2.5-.59 4.7-1.77 6.6a11.96 11.96 0 0 1-4.95 4.45 16.48 16.48 0 0 1-7.44 1.59c-2.86 0-5.35-.53-7.47-1.59a11.93 11.93 0 0 1-4.94-4.45 12.31 12.31 0 0 1-1.76-6.6v-22.8h6.32v22.28c0 1.45.32 2.75.96 3.89a6.97 6.97 0 0 0 2.73 2.67c1.17.64 2.55.96 4.16.96 1.6 0 2.98-.32 4.15-.96a6.72 6.72 0 0 0 2.73-2.67c.64-1.14.96-2.44.96-3.9V262.1Zm19.52 0V297h-6.33v-34.9h6.33Zm18.75 34.91v-34.9h6.17v13.05h.26c.32-.64.77-1.31 1.34-2.03a7.18 7.18 0 0 1 2.36-1.86 8.07 8.07 0 0 1 3.78-.78c2.02 0 3.85.51 5.47 1.55a10.51 10.51 0 0 1 3.89 4.55c.96 2 1.45 4.45 1.45 7.36 0 2.88-.47 5.32-1.42 7.33a10.71 10.71 0 0 1-3.85 4.6 9.9 9.9 0 0 1-5.52 1.59 7.56 7.56 0 0 1-6.12-2.56c-.59-.71-1.05-1.39-1.38-2.02h-.36V297h-6.07Zm6.05-13.1c0 1.7.24 3.19.72 4.46a6.8 6.8 0 0 0 2.1 2.98c.92.7 2.03 1.06 3.34 1.06 1.36 0 2.5-.37 3.42-1.1a6.69 6.69 0 0 0 2.08-3.01c.48-1.28.72-2.75.72-4.38s-.23-3.07-.7-4.33a6.53 6.53 0 0 0-2.08-2.97 5.44 5.44 0 0 0-3.44-1.07c-1.32 0-2.44.35-3.36 1.04a6.42 6.42 0 0 0-2.1 2.91c-.46 1.25-.7 2.73-.7 4.42Zm40.6 2.09v-15.17h6.17V297h-5.98v-4.65h-.27a7.96 7.96 0 0 1-2.92 3.6 8.47 8.47 0 0 1-4.96 1.4 8.93 8.93 0 0 1-4.55-1.15 7.93 7.93 0 0 1-3.07-3.36 11.84 11.84 0 0 1-1.11-5.35v-16.67h6.17v15.71c0 1.66.46 2.98 1.37 3.96.91.98 2.1 1.46 3.58 1.46a5.64 5.64 0 0 0 4.74-2.64c.55-.88.83-2 .83-3.32Zm12.52 11.01v-26.18h6.17V297h-6.17Zm3.1-29.9c-.98 0-1.82-.32-2.52-.97a3.12 3.12 0 0 1-1.06-2.37c0-.93.35-1.72 1.06-2.37.7-.66 1.54-.99 2.52-.99.99 0 1.83.33 2.52 1a3.08 3.08 0 0 1 1.06 2.36c0 .92-.35 1.71-1.06 2.37-.69.65-1.53.97-2.52.97Zm15.58-5V297h-6.17v-34.9h6.17Zm16.06 35.36a9.92 9.92 0 0 1-5.52-1.58 10.78 10.78 0 0 1-3.85-4.6 17.22 17.22 0 0 1-1.42-7.34c0-2.9.48-5.36 1.44-7.36a10.04 10.04 0 0 1 9.37-6.1c1.54 0 2.8.26 3.78.78a7.18 7.18 0 0 1 2.36 1.86c.58.71 1.03 1.4 1.34 2.03h.26v-13.06h6.19V297h-6.07v-4.13h-.38a9.87 9.87 0 0 1-1.38 2.03 7.52 7.52 0 0 1-6.12 2.56Zm1.73-5.06c1.3 0 2.42-.35 3.34-1.06a6.54 6.54 0 0 0 2.09-2.98c.48-1.28.72-2.76.72-4.45 0-1.7-.24-3.17-.72-4.42a6.24 6.24 0 0 0-2.08-2.91 5.35 5.35 0 0 0-3.35-1.04c-1.38 0-2.53.36-3.45 1.07a6.53 6.53 0 0 0-2.08 2.97c-.46 1.26-.7 2.7-.7 4.33s.24 3.1.7 4.38a6.88 6.88 0 0 0 2.1 3.02 5.4 5.4 0 0 0 3.43 1.09Zm30.38 5.11a13.5 13.5 0 0 1-6.8-1.63 11.05 11.05 0 0 1-4.38-4.68 15.68 15.68 0 0 1-1.53-7.14c0-2.7.51-5.05 1.53-7.09a11.65 11.65 0 0 1 4.33-4.77 12.14 12.14 0 0 1 6.53-1.72c1.61 0 3.14.26 4.57.78 1.44.51 2.71 1.3 3.82 2.39a11.26 11.26 0 0 1 2.62 4.12c.64 1.66.96 3.64.96 5.94v1.89h-21.46v-4.16h15.54a6.63 6.63 0 0 0-.77-3.16 5.61 5.61 0 0 0-5.2-3c-1.26 0-2.36.31-3.32.93-.95.6-1.7 1.4-2.23 2.38a6.88 6.88 0 0 0-.8 3.22v3.63c0 1.53.28 2.83.83 3.92a5.99 5.99 0 0 0 2.34 2.5c1 .56 2.17.84 3.51.84.9 0 1.71-.12 2.44-.37a5.53 5.53 0 0 0 1.89-1.14c.53-.5.94-1.12 1.21-1.86l5.76.65a8.97 8.97 0 0 1-2.08 3.99c-1.01 1.12-2.31 2-3.89 2.62-1.58.62-3.38.92-5.42.92Zm16.87-.51v-26.18h5.98v4.36h.27a6.54 6.54 0 0 1 6.46-4.74 14.25 14.25 0 0 1 2.22.17v5.68c-.26-.1-.68-.17-1.25-.24-.55-.08-1.09-.12-1.62-.12-1.12 0-2.13.25-3.03.74a5.34 5.34 0 0 0-2.86 4.94V297h-6.17ZM1253.31 404v-23.27h8.91c1.68 0 3.08.26 4.19.8a5.59 5.59 0 0 1 3.36 5.23 5.1 5.1 0 0 1-.55 2.43 4.5 4.5 0 0 1-1.47 1.63c-.61.42-1.29.71-2.05.9v.22a5.3 5.3 0 0 1 4.25 2.7c.48.83.72 1.84.72 3.02 0 1.2-.29 2.29-.87 3.25a5.91 5.91 0 0 1-2.64 2.26c-1.17.55-2.65.83-4.43.83h-9.42Zm4.22-3.52h4.53c1.53 0 2.63-.3 3.31-.88a2.87 2.87 0 0 0 1.02-2.27 3.49 3.49 0 0 0-1.97-3.18 4.78 4.78 0 0 0-2.25-.5h-4.64v6.83Zm0-9.86h4.17c.72 0 1.38-.13 1.96-.4a3.08 3.08 0 0 0 1.89-2.92c0-.9-.32-1.64-.95-2.22-.63-.58-1.57-.88-2.81-.88h-4.26v6.43Zm27.76 6.04v-10.12h4.11V404h-3.99v-3.1h-.18a5.29 5.29 0 0 1-1.94 2.4c-.9.62-2 .93-3.31.93a5.27 5.27 0 0 1-5.08-3 7.94 7.94 0 0 1-.74-3.57v-11.12h4.11v10.48c0 1.1.31 1.99.91 2.64.61.65 1.4.98 2.39.98a3.75 3.75 0 0 0 3.16-1.76c.37-.6.56-1.33.56-2.22Zm8.34 7.34v-17.45h4.11V404h-4.11Zm2.07-19.93a2.4 2.4 0 0 1-1.68-.65 2.09 2.09 0 0 1-.71-1.58c0-.62.24-1.15.71-1.58a2.38 2.38 0 0 1 1.68-.66c.66 0 1.22.22 1.68.66.47.43.7.96.7 1.58 0 .62-.23 1.14-.7 1.58-.46.43-1.02.65-1.68.65Zm10.39-3.34V404h-4.12v-23.27h4.12Zm10.7 23.58a6.61 6.61 0 0 1-3.68-1.06 7.22 7.22 0 0 1-2.57-3.07 11.59 11.59 0 0 1-.94-4.88c0-1.94.32-3.58.96-4.91a6.67 6.67 0 0 1 6.25-4.07c1.02 0 1.86.17 2.52.52a4.8 4.8 0 0 1 1.57 1.24c.38.48.68.93.89 1.35h.17v-8.7h4.13V404h-4.05v-2.75h-.25c-.21.42-.51.88-.92 1.35a5.04 5.04 0 0 1-4.08 1.7Zm1.15-3.38c.87 0 1.62-.23 2.23-.7a4.45 4.45 0 0 0 1.4-2c.31-.84.47-1.83.47-2.96s-.16-2.1-.47-2.94a4.21 4.21 0 0 0-1.39-1.94 3.59 3.59 0 0 0-2.24-.7c-.91 0-1.68.24-2.29.72a4.29 4.29 0 0 0-1.39 1.98c-.31.84-.47 1.8-.47 2.88 0 1.1.16 2.07.47 2.92.32.85.78 1.52 1.4 2.01a3.6 3.6 0 0 0 2.28.73Zm23.03 9.62a8.38 8.38 0 0 1-2.68-.44l.95-3.2c.6.17 1.13.26 1.6.25.47 0 .88-.16 1.24-.44s.67-.75.92-1.41l.35-.95-6.33-17.81h4.37l4.02 13.18h.18l4.04-13.19h4.37l-6.99 19.57a7.66 7.66 0 0 1-1.29 2.38 5.3 5.3 0 0 1-1.98 1.52c-.77.36-1.7.54-2.77.54Zm22.9-6.2a8.43 8.43 0 0 1-4.43-1.13 7.64 7.64 0 0 1-2.91-3.15 10.37 10.37 0 0 1-1.03-4.73c0-1.8.35-3.38 1.03-4.74a7.63 7.63 0 0 1 2.91-3.16 8.43 8.43 0 0 1 4.43-1.12c1.7 0 3.18.37 4.43 1.12a7.54 7.54 0 0 1 2.9 3.16 10.32 10.32 0 0 1 1.03 4.74c0 1.8-.34 3.38-1.03 4.73a7.56 7.56 0 0 1-2.9 3.15 8.46 8.46 0 0 1-4.43 1.12Zm.02-3.3c.92 0 1.7-.26 2.32-.77a4.66 4.66 0 0 0 1.39-2.06 8.5 8.5 0 0 0 .46-2.89c0-1.07-.15-2.03-.46-2.9a4.66 4.66 0 0 0-1.39-2.08 3.52 3.52 0 0 0-2.32-.77 3.6 3.6 0 0 0-2.36.77 4.68 4.68 0 0 0-1.4 2.08c-.3.87-.46 1.83-.46 2.9 0 1.06.16 2.02.46 2.89.31.86.78 1.55 1.4 2.06.63.51 1.41.77 2.36.77Zm22.96-4.4v-10.1h4.11V404h-3.99v-3.1h-.18a5.22 5.22 0 0 1-1.94 2.4c-.9.62-2 .93-3.31.93a5.29 5.29 0 0 1-5.08-3 7.94 7.94 0 0 1-.74-3.57v-11.12h4.12v10.48c0 1.1.3 1.99.91 2.64.6.65 1.4.98 2.38.98a3.72 3.72 0 0 0 3.72-3.98Zm8.34 7.35v-17.45h3.99v2.9h.18a4.38 4.38 0 0 1 4.31-3.15 9.31 9.31 0 0 1 1.48.1v3.8a7.61 7.61 0 0 0-1.91-.24 4.2 4.2 0 0 0-2.03.48c-.59.32-1.05.76-1.39 1.33a3.75 3.75 0 0 0-.51 1.97V404h-4.12Zm27.1.3a6.61 6.61 0 0 1-3.68-1.05 7.22 7.22 0 0 1-2.57-3.07 11.59 11.59 0 0 1-.94-4.88c0-1.94.32-3.58.96-4.91a6.67 6.67 0 0 1 6.25-4.07c1.02 0 1.86.17 2.52.52a4.8 4.8 0 0 1 1.57 1.24c.38.48.68.93.89 1.35h.17v-8.7h4.13V404h-4.05v-2.75h-.25c-.21.42-.51.88-.92 1.35a5.04 5.04 0 0 1-4.08 1.7Zm1.15-3.37c.87 0 1.62-.23 2.23-.7a4.45 4.45 0 0 0 1.4-2c.31-.84.47-1.83.47-2.96s-.16-2.1-.47-2.94a4.21 4.21 0 0 0-1.39-1.94 3.59 3.59 0 0 0-2.24-.7c-.91 0-1.68.24-2.29.72a4.29 4.29 0 0 0-1.39 1.98c-.31.84-.47 1.8-.47 2.88 0 1.1.16 2.07.47 2.92.32.85.78 1.52 1.4 2.01a3.6 3.6 0 0 0 2.28.73Zm12.53 3.07v-17.45h3.99v2.9h.18a4.38 4.38 0 0 1 4.31-3.15 9.31 9.31 0 0 1 1.48.1v3.8a7.61 7.61 0 0 0-1.91-.24c-.75 0-1.43.16-2.02.48-.6.32-1.06.76-1.4 1.33a3.75 3.75 0 0 0-.51 1.97V404h-4.12Zm19.7.34a9.03 9.03 0 0 1-4.54-1.09 7.47 7.47 0 0 1-2.92-3.11 10.45 10.45 0 0 1-1.02-4.76c0-1.8.34-3.38 1.02-4.73a7.77 7.77 0 0 1 2.89-3.18 8.12 8.12 0 0 1 4.35-1.15c1.08 0 2.09.17 3.05.52.96.34 1.81.87 2.54 1.6a7.31 7.31 0 0 1 1.75 2.74c.43 1.1.64 2.43.64 3.96v1.26h-14.31v-2.77h10.37a4.49 4.49 0 0 0-.51-2.1 3.76 3.76 0 0 0-3.47-2c-.84 0-1.58.2-2.22.6-.63.4-1.13.94-1.48 1.6a4.6 4.6 0 0 0-.54 2.14v2.43c0 1.01.19 1.88.56 2.6.37.73.89 1.28 1.55 1.67.67.38 1.45.57 2.35.57.59 0 1.14-.09 1.62-.25a3.5 3.5 0 0 0 1.26-.76c.36-.34.63-.75.81-1.24l3.84.43a5.89 5.89 0 0 1-1.39 2.66 6.66 6.66 0 0 1-2.59 1.75c-1.05.4-2.25.61-3.61.61Zm16.26.01c-1.1 0-2.1-.2-2.99-.59-.87-.4-1.57-1-2.09-1.77a5.25 5.25 0 0 1-.76-2.89c0-.98.18-1.8.55-2.44.36-.65.86-1.16 1.49-1.55a7.45 7.45 0 0 1 2.12-.87c.8-.2 1.62-.35 2.47-.44 1.02-.11 1.85-.2 2.49-.29a3.7 3.7 0 0 0 1.38-.4c.3-.2.45-.49.45-.88v-.07c0-.86-.26-1.52-.77-1.99-.5-.47-1.23-.7-2.19-.7-1.01 0-1.81.22-2.4.65-.58.44-.97.96-1.18 1.56l-3.84-.54c.3-1.06.8-1.95 1.5-2.66a6.55 6.55 0 0 1 2.56-1.62 10.86 10.86 0 0 1 5.85-.25c.83.2 1.59.53 2.28.98a4.86 4.86 0 0 1 1.66 1.83c.43.77.64 1.74.64 2.9V404h-3.96v-2.4h-.13a4.93 4.93 0 0 1-2.75 2.38c-.68.25-1.47.37-2.38.37Zm1.07-3.02c.83 0 1.54-.16 2.15-.49a3.62 3.62 0 0 0 1.4-1.32c.33-.54.5-1.14.5-1.78v-2.06c-.13.1-.35.2-.66.3-.31.09-.65.17-1.02.24a33.03 33.03 0 0 1-2.1.31 7.1 7.1 0 0 0-1.64.41c-.49.2-.87.46-1.15.8-.28.33-.42.76-.42 1.3 0 .75.27 1.32.83 1.71a3.6 3.6 0 0 0 2.11.58Zm12.29 2.67v-17.45h3.93v2.96h.2c.37-1 .97-1.78 1.81-2.34a5.24 5.24 0 0 1 3.01-.85c1.18 0 2.18.29 2.99.86a4.55 4.55 0 0 1 1.73 2.33h.18a4.77 4.77 0 0 1 1.95-2.32 6.05 6.05 0 0 1 3.29-.87c1.6 0 2.91.5 3.93 1.52 1.01 1.02 1.52 2.5 1.52 4.44V404h-4.12v-11.08c0-1.08-.29-1.88-.87-2.38a3.07 3.07 0 0 0-2.11-.76c-.99 0-1.77.32-2.33.94a3.46 3.46 0 0 0-.83 2.4V404h-4.03v-11.25c0-.9-.28-1.62-.82-2.16a2.88 2.88 0 0 0-2.12-.8c-.59 0-1.13.15-1.61.45-.48.3-.87.71-1.16 1.26a3.92 3.92 0 0 0-.43 1.89V404h-4.11Zm41.67.35c-1.1 0-2.1-.2-2.98-.59-.88-.4-1.58-1-2.1-1.77a5.25 5.25 0 0 1-.76-2.89c0-.98.19-1.8.55-2.44.36-.65.86-1.16 1.49-1.55a7.45 7.45 0 0 1 2.12-.87c.8-.2 1.62-.35 2.47-.44 1.02-.11 1.85-.2 2.49-.29.63-.09 1.1-.23 1.38-.4.3-.2.45-.49.45-.88v-.07a2.6 2.6 0 0 0-.76-1.99c-.51-.47-1.24-.7-2.2-.7-1.01 0-1.8.22-2.4.65-.58.44-.97.96-1.18 1.56l-3.84-.54c.3-1.06.8-1.95 1.5-2.66a6.55 6.55 0 0 1 2.56-1.62 10.86 10.86 0 0 1 5.85-.25c.83.2 1.6.53 2.28.98a4.86 4.86 0 0 1 1.66 1.83c.43.77.64 1.74.64 2.9V404h-3.95v-2.4h-.14a4.93 4.93 0 0 1-2.75 2.38c-.67.25-1.47.37-2.38.37Zm1.07-3.02c.83 0 1.54-.16 2.15-.49a3.62 3.62 0 0 0 1.4-1.32c.33-.54.5-1.14.5-1.78v-2.06c-.13.1-.35.2-.66.3-.3.09-.64.17-1.02.24l-1.13.18-.96.13c-.62.09-1.17.22-1.65.41-.49.2-.87.46-1.15.8-.28.33-.42.76-.42 1.3 0 .75.28 1.32.83 1.71a3.6 3.6 0 0 0 2.11.58Zm12.29 9.22v-24h4.04v2.88h.24c.21-.42.51-.87.9-1.35.38-.48.91-.9 1.57-1.24.66-.35 1.5-.52 2.52-.52a6.67 6.67 0 0 1 6.24 4.07c.64 1.33.96 2.97.96 4.9 0 1.92-.31 3.55-.94 4.9a7.15 7.15 0 0 1-2.57 3.06 6.59 6.59 0 0 1-3.68 1.06 5.04 5.04 0 0 1-4.08-1.7c-.39-.49-.7-.94-.92-1.36h-.17v9.3h-4.11Zm4.03-15.28c0 1.13.16 2.12.48 2.97.32.85.79 1.51 1.4 1.99.61.47 1.35.7 2.22.7a3.6 3.6 0 0 0 2.29-.73 4.5 4.5 0 0 0 1.38-2 8.3 8.3 0 0 0 .48-2.93c0-1.08-.15-2.04-.47-2.88a4.34 4.34 0 0 0-1.38-1.98 3.65 3.65 0 0 0-2.3-.72c-.88 0-1.62.23-2.24.7a4.21 4.21 0 0 0-1.39 1.94 8.43 8.43 0 0 0-.47 2.94Zm15.97 15.28v-24h4.04v2.88h.24c.21-.42.51-.87.9-1.35.38-.48.91-.9 1.57-1.24.66-.35 1.5-.52 2.52-.52a6.67 6.67 0 0 1 6.24 4.07c.64 1.33.96 2.97.96 4.9 0 1.92-.31 3.55-.94 4.9a7.15 7.15 0 0 1-2.57 3.06 6.59 6.59 0 0 1-3.68 1.06 5.04 5.04 0 0 1-4.08-1.7c-.39-.49-.7-.94-.92-1.36h-.17v9.3h-4.11Zm4.03-15.28c0 1.13.16 2.12.48 2.97.32.85.79 1.51 1.4 1.99.61.47 1.35.7 2.22.7a3.6 3.6 0 0 0 2.29-.73 4.5 4.5 0 0 0 1.38-2 8.3 8.3 0 0 0 .48-2.93c0-1.08-.15-2.04-.47-2.88a4.34 4.34 0 0 0-1.38-1.98 3.65 3.65 0 0 0-2.3-.72c-.88 0-1.62.23-2.24.7a4.21 4.21 0 0 0-1.39 1.94 8.43 8.43 0 0 0-.47 2.94Zm20.08-14.54V404h-4.11v-23.27h4.11Zm4.23 23.27v-17.45h4.11V404h-4.11Zm2.07-19.93a2.4 2.4 0 0 1-1.68-.65 2.09 2.09 0 0 1-.71-1.58c0-.62.24-1.15.71-1.58a2.38 2.38 0 0 1 1.68-.66c.66 0 1.22.22 1.68.66.47.43.71.96.71 1.58 0 .62-.24 1.14-.71 1.58-.46.43-1.02.65-1.68.65Zm13.89 20.27a8.45 8.45 0 0 1-4.49-1.15 7.73 7.73 0 0 1-2.88-3.17c-.66-1.35-1-2.91-1-4.68 0-1.77.35-3.34 1.03-4.7a7.62 7.62 0 0 1 2.88-3.17 8.34 8.34 0 0 1 4.44-1.15c1.41 0 2.67.26 3.76.78a6.39 6.39 0 0 1 3.74 5.5h-3.94a3.74 3.74 0 0 0-1.13-2.11 3.3 3.3 0 0 0-2.38-.85c-.84 0-1.58.22-2.21.68a4.3 4.3 0 0 0-1.49 1.93 7.84 7.84 0 0 0-.53 3.02c0 1.2.18 2.22.53 3.07.35.85.83 1.5 1.46 1.97.64.45 1.39.68 2.24.68.61 0 1.15-.12 1.63-.34.48-.24.89-.57 1.21-1.01.33-.44.55-.98.67-1.6h3.94a6.86 6.86 0 0 1-1.1 3.28 6.4 6.4 0 0 1-2.56 2.23c-1.09.53-2.36.8-3.82.8Zm15.88.01c-1.11 0-2.11-.2-2.99-.59-.88-.4-1.58-1-2.09-1.77a5.17 5.17 0 0 1-.77-2.89c0-.98.19-1.8.55-2.44.36-.65.86-1.16 1.49-1.55a7.57 7.57 0 0 1 2.12-.87c.8-.2 1.62-.35 2.47-.44 1.02-.11 1.85-.2 2.49-.29.63-.09 1.1-.23 1.38-.4.3-.2.45-.49.45-.88v-.07a2.6 2.6 0 0 0-.76-1.99c-.51-.47-1.24-.7-2.2-.7-1 0-1.8.22-2.39.65-.59.44-.98.96-1.19 1.56l-3.84-.54a6.28 6.28 0 0 1 4.06-4.28 10.86 10.86 0 0 1 5.85-.25c.84.2 1.6.53 2.29.98a4.94 4.94 0 0 1 1.66 1.83c.42.77.63 1.74.63 2.9V404h-3.95v-2.4h-.14a4.93 4.93 0 0 1-2.75 2.38c-.67.25-1.47.37-2.37.37Zm1.06-3.02c.83 0 1.55-.16 2.15-.49a3.62 3.62 0 0 0 1.4-1.32c.33-.54.5-1.14.5-1.78v-2.06c-.13.1-.35.2-.66.3-.3.09-.64.17-1.02.24l-1.13.18-.96.13c-.62.09-1.17.22-1.65.41-.49.2-.87.46-1.15.8-.28.33-.42.76-.42 1.3 0 .75.28 1.32.83 1.71a3.6 3.6 0 0 0 2.11.58Zm21-14.78v3.18h-10.03v-3.19h10.03Zm-7.55-4.19h4.11v16.39c0 .55.08.98.25 1.27.17.3.4.49.68.6.28.1.59.15.93.15a4.04 4.04 0 0 0 1.21-.16l.69 3.22a7.92 7.92 0 0 1-5.2-.06 4.35 4.35 0 0 1-1.97-1.61 4.76 4.76 0 0 1-.7-2.73v-17.07ZM1646 404v-17.45h4.12V404H1646Zm2.07-19.93a2.4 2.4 0 0 1-1.68-.65c-.47-.44-.7-.97-.7-1.58 0-.62.23-1.15.7-1.58a2.38 2.38 0 0 1 1.68-.66c.66 0 1.22.22 1.68.66.47.43.71.96.71 1.58 0 .62-.24 1.14-.71 1.58-.46.43-1.02.65-1.68.65Zm13.89 20.27c-1.7 0-3.18-.37-4.43-1.12a7.64 7.64 0 0 1-2.91-3.15 10.37 10.37 0 0 1-1.02-4.73c0-1.8.34-3.38 1.02-4.74a7.63 7.63 0 0 1 2.91-3.16 8.46 8.46 0 0 1 4.43-1.12c1.71 0 3.18.37 4.43 1.12a7.54 7.54 0 0 1 2.9 3.16 10.32 10.32 0 0 1 1.04 4.74c0 1.8-.35 3.38-1.04 4.73a7.56 7.56 0 0 1-2.9 3.15 8.43 8.43 0 0 1-4.43 1.12Zm.02-3.3c.93 0 1.7-.25 2.32-.76a4.58 4.58 0 0 0 1.39-2.06 8.5 8.5 0 0 0 .46-2.89c0-1.07-.15-2.03-.46-2.9a4.58 4.58 0 0 0-1.39-2.08 3.5 3.5 0 0 0-2.32-.77c-.94 0-1.73.26-2.36.77a4.68 4.68 0 0 0-1.4 2.08c-.3.87-.45 1.83-.45 2.9 0 1.06.15 2.02.45 2.89.31.86.78 1.55 1.4 2.06.63.51 1.42.77 2.36.77Zm15.95-7.27V404h-4.11v-17.45h3.93v2.96h.2a4.97 4.97 0 0 1 1.92-2.33 5.92 5.92 0 0 1 3.29-.86c1.2 0 2.25.26 3.15.77.9.52 1.59 1.26 2.09 2.24.5.98.74 2.16.73 3.56V404h-4.11v-10.48c0-1.16-.3-2.08-.91-2.74a3.2 3.2 0 0 0-2.49-.98c-.72 0-1.36.15-1.92.47-.55.31-.99.76-1.3 1.36-.31.59-.47 1.3-.47 2.14Zm31.05 10.57a8.97 8.97 0 0 1-4.53-1.09 7.35 7.35 0 0 1-2.92-3.11 10.45 10.45 0 0 1-1.03-4.76c0-1.8.35-3.38 1.03-4.73a7.75 7.75 0 0 1 2.88-3.18 8.13 8.13 0 0 1 4.36-1.15c1.07 0 2.09.17 3.04.52.96.34 1.81.87 2.55 1.6a7.56 7.56 0 0 1 1.75 2.74c.42 1.1.63 2.43.63 3.96v1.26h-14.3v-2.77h10.36a4.49 4.49 0 0 0-.51-2.1 3.7 3.7 0 0 0-1.4-1.47 3.93 3.93 0 0 0-2.07-.54 4.16 4.16 0 0 0-3.7 2.2 4.6 4.6 0 0 0-.54 2.16v2.42c0 1.01.19 1.88.56 2.6.37.73.89 1.28 1.56 1.67.66.38 1.44.57 2.34.57.6 0 1.14-.09 1.62-.25a3.5 3.5 0 0 0 1.26-.76c.36-.34.63-.75.81-1.24l3.84.43a5.97 5.97 0 0 1-1.38 2.66 6.82 6.82 0 0 1-2.59 1.75c-1.06.4-2.26.61-3.62.61Zm16.27.01c-1.11 0-2.11-.2-2.99-.59-.88-.4-1.58-1-2.09-1.77a5.17 5.17 0 0 1-.77-2.89c0-.98.19-1.8.55-2.44.36-.65.86-1.16 1.49-1.55a7.57 7.57 0 0 1 2.12-.87c.8-.2 1.62-.35 2.47-.44 1.02-.11 1.85-.2 2.49-.29.63-.09 1.1-.23 1.38-.4.3-.2.45-.49.45-.88v-.07a2.6 2.6 0 0 0-.76-1.99c-.51-.47-1.24-.7-2.2-.7-1 0-1.8.22-2.39.65-.59.44-.98.96-1.19 1.56l-3.84-.54a6.28 6.28 0 0 1 4.06-4.28 10.86 10.86 0 0 1 5.85-.25c.84.2 1.6.53 2.29.98a4.94 4.94 0 0 1 1.66 1.83c.42.77.63 1.74.63 2.9V404h-3.95v-2.4h-.14a4.93 4.93 0 0 1-2.75 2.38c-.67.25-1.47.37-2.37.37Zm1.06-3.02c.83 0 1.55-.16 2.15-.49a3.62 3.62 0 0 0 1.4-1.32c.33-.54.5-1.14.5-1.78v-2.06c-.13.1-.35.2-.66.3-.3.09-.64.17-1.02.24l-1.13.18-.96.13c-.62.09-1.17.22-1.65.41-.49.2-.87.46-1.15.8-.28.33-.42.76-.42 1.3 0 .75.28 1.32.83 1.71a3.6 3.6 0 0 0 2.11.58Zm26.08-10.17-3.75.4c-.1-.37-.29-.73-.55-1.06a2.8 2.8 0 0 0-1.05-.8c-.44-.21-.98-.31-1.61-.31-.86 0-1.58.18-2.16.55-.58.37-.86.86-.85 1.45-.01.5.17.92.55 1.24.39.31 1.03.57 1.91.78l2.98.63c1.65.36 2.88.93 3.68 1.7a4.05 4.05 0 0 1 1.23 3.03 4.74 4.74 0 0 1-.97 2.91 6.19 6.19 0 0 1-2.62 1.96c-1.12.47-2.41.7-3.87.7-2.13 0-3.85-.45-5.16-1.34a5.39 5.39 0 0 1-2.32-3.76l4.01-.39c.18.79.56 1.38 1.16 1.79.59.4 1.36.6 2.3.6.98 0 1.76-.2 2.35-.6.6-.4.9-.9.9-1.5 0-.5-.19-.9-.58-1.23a4.05 4.05 0 0 0-1.77-.75l-2.98-.63c-1.67-.34-2.91-.93-3.71-1.76a4.34 4.34 0 0 1-1.2-3.16c0-1.07.29-2 .88-2.8.6-.79 1.43-1.4 2.49-1.83a9.66 9.66 0 0 1 3.69-.66c2.05 0 3.66.43 4.83 1.3a5.5 5.5 0 0 1 2.19 3.54Zm3.77 12.84v-17.45h4.11V404h-4.11Zm2.07-19.93a2.4 2.4 0 0 1-1.68-.65 2.09 2.09 0 0 1-.71-1.58c0-.62.24-1.15.71-1.58a2.38 2.38 0 0 1 1.68-.66c.66 0 1.22.22 1.68.66.47.43.71.96.71 1.58 0 .62-.24 1.14-.71 1.58-.46.43-1.02.65-1.68.65Zm10.39-3.34V404h-4.12v-23.27h4.12Zm6.78 29.81a8.27 8.27 0 0 1-2.68-.43l.96-3.2c.6.17 1.13.26 1.6.25.47 0 .88-.16 1.24-.44s.67-.75.92-1.41l.35-.95-6.33-17.81h4.37l4.02 13.18h.18l4.03-13.19h4.38l-6.99 19.57a7.9 7.9 0 0 1-1.3 2.38 5.18 5.18 0 0 1-1.97 1.52c-.78.36-1.7.54-2.78.54Zm37.62-19.38-3.75.4a3 3 0 0 0-1.6-1.87c-.44-.2-.98-.3-1.62-.3-.85 0-1.57.18-2.16.55-.57.37-.86.86-.85 1.45-.01.5.18.92.56 1.24a4.7 4.7 0 0 0 1.91.78l2.97.63c1.66.36 2.88.93 3.69 1.7a4 4 0 0 1 1.22 3.03c0 1.1-.33 2.07-.96 2.91a6.22 6.22 0 0 1-2.63 1.96c-1.12.47-2.41.7-3.86.7-2.14 0-3.86-.45-5.16-1.34a5.4 5.4 0 0 1-2.33-3.76l4.01-.39c.18.79.57 1.38 1.16 1.79.59.4 1.36.6 2.31.6.97 0 1.76-.2 2.35-.6.6-.4.9-.9.9-1.5 0-.5-.2-.9-.58-1.23a4.05 4.05 0 0 0-1.77-.75l-2.98-.63c-1.68-.34-2.91-.93-3.72-1.76a4.33 4.33 0 0 1-1.19-3.16c-.01-1.07.28-2 .87-2.8.6-.79 1.43-1.4 2.49-1.83a9.68 9.68 0 0 1 3.7-.66c2.04 0 3.65.43 4.83 1.3a5.5 5.5 0 0 1 2.19 3.54Zm12.48-4.62v3.19h-10.03v-3.19h10.03Zm-7.56-4.18h4.12v16.39c0 .55.08.98.25 1.27.17.3.4.49.68.6.28.1.59.15.93.15a4.12 4.12 0 0 0 1.21-.16l.69 3.22a8.02 8.02 0 0 1-5.2-.06 4.3 4.3 0 0 1-1.97-1.61 4.85 4.85 0 0 1-.71-2.73v-17.07Zm18.54 21.98a8.97 8.97 0 0 1-4.53-1.09 7.35 7.35 0 0 1-2.92-3.11 10.45 10.45 0 0 1-1.03-4.76c0-1.8.35-3.38 1.03-4.73a7.75 7.75 0 0 1 2.88-3.18 8.13 8.13 0 0 1 4.36-1.15c1.07 0 2.09.17 3.04.52.96.34 1.81.87 2.55 1.6a7.56 7.56 0 0 1 1.75 2.74c.42 1.1.63 2.43.63 3.96v1.26h-14.3v-2.77h10.36a4.49 4.49 0 0 0-.51-2.1 3.7 3.7 0 0 0-1.4-1.47 3.93 3.93 0 0 0-2.07-.54 4.16 4.16 0 0 0-3.7 2.2 4.6 4.6 0 0 0-.54 2.16v2.42c0 1.01.19 1.88.56 2.6.37.73.89 1.28 1.56 1.67.66.38 1.44.57 2.34.57.6 0 1.14-.09 1.62-.25a3.5 3.5 0 0 0 1.26-.76c.36-.34.63-.75.81-1.24l3.84.43a5.97 5.97 0 0 1-1.38 2.66 6.82 6.82 0 0 1-2.59 1.75c-1.06.4-2.26.61-3.62.61Zm11.24 6.2v-24h4.05v2.9h.24c.21-.43.51-.88.89-1.36.39-.48.91-.9 1.57-1.24.66-.35 1.5-.52 2.53-.52a6.64 6.64 0 0 1 6.23 4.07c.65 1.33.97 2.97.97 4.9 0 1.92-.31 3.55-.94 4.9a7.22 7.22 0 0 1-2.57 3.06 6.59 6.59 0 0 1-3.68 1.06 5.04 5.04 0 0 1-4.08-1.7c-.4-.49-.7-.94-.92-1.36h-.17v9.3h-4.12Zm4.04-15.27c0 1.13.16 2.12.47 2.97.33.85.8 1.51 1.4 1.99.62.47 1.36.7 2.23.7.91 0 1.67-.24 2.28-.73a4.44 4.44 0 0 0 1.39-2 8.3 8.3 0 0 0 .48-2.93c0-1.08-.16-2.04-.47-2.88a4.29 4.29 0 0 0-1.39-1.98 3.6 3.6 0 0 0-2.29-.72 3.6 3.6 0 0 0-2.24.7 4.3 4.3 0 0 0-1.4 1.94 8.44 8.44 0 0 0-.46 2.94Zm24.08 8.73v-23.27h4.12v8.7h.17c.21-.42.51-.87.89-1.35.39-.48.91-.9 1.57-1.24.66-.35 1.5-.52 2.53-.52a6.64 6.64 0 0 1 6.23 4.07c.65 1.33.97 2.97.97 4.9 0 1.92-.31 3.55-.94 4.9a7.22 7.22 0 0 1-2.57 3.06 6.61 6.61 0 0 1-3.68 1.06 5.04 5.04 0 0 1-4.08-1.7c-.4-.49-.7-.94-.92-1.36h-.24V404h-4.05Zm4.04-8.73c0 1.13.16 2.12.47 2.97.33.85.8 1.51 1.4 1.99.62.47 1.36.7 2.23.7.91 0 1.67-.24 2.28-.73a4.44 4.44 0 0 0 1.39-2 8.3 8.3 0 0 0 .48-2.93c0-1.08-.16-2.04-.47-2.88a4.29 4.29 0 0 0-1.39-1.98 3.6 3.6 0 0 0-2.29-.72 3.6 3.6 0 0 0-2.24.7 4.3 4.3 0 0 0-1.4 1.94 8.44 8.44 0 0 0-.46 2.94Zm17.9 15.28a8.38 8.38 0 0 1-2.68-.44l.95-3.2c.6.17 1.14.26 1.6.25.47 0 .89-.16 1.24-.44.37-.28.67-.75.92-1.41l.36-.95-6.33-17.81h4.36l4.02 13.18h.18l4.04-13.19h4.37l-6.98 19.57a7.9 7.9 0 0 1-1.3 2.38 5.3 5.3 0 0 1-1.98 1.52c-.77.36-1.69.54-2.77.54Zm37.61-19.4-3.75.42c-.1-.38-.29-.74-.55-1.07a2.8 2.8 0 0 0-1.05-.8c-.44-.21-.98-.31-1.61-.31-.86 0-1.58.18-2.16.55-.58.37-.86.86-.85 1.45-.01.5.17.92.55 1.24.39.31 1.03.57 1.91.78l2.98.63c1.65.36 2.88.93 3.68 1.7a4.05 4.05 0 0 1 1.23 3.03 4.74 4.74 0 0 1-.97 2.91 6.19 6.19 0 0 1-2.62 1.96c-1.12.47-2.41.7-3.87.7-2.13 0-3.85-.45-5.16-1.34a5.39 5.39 0 0 1-2.32-3.76l4.01-.39c.18.79.56 1.38 1.16 1.79.59.4 1.36.6 2.3.6.98 0 1.76-.2 2.35-.6.6-.4.9-.9.9-1.5 0-.5-.19-.9-.58-1.23a4.05 4.05 0 0 0-1.77-.75l-2.98-.63c-1.67-.34-2.91-.93-3.71-1.76a4.34 4.34 0 0 1-1.2-3.16c0-1.07.29-2 .88-2.8.6-.79 1.43-1.4 2.49-1.83a9.66 9.66 0 0 1 3.69-.66c2.05 0 3.66.43 4.83 1.3a5.5 5.5 0 0 1 2.19 3.54Zm12.49-4.6v3.18h-10.04v-3.19h10.04Zm-7.56-4.19h4.11v16.39c0 .55.09.98.25 1.27.18.3.4.49.69.6.28.1.59.15.93.15a4 4 0 0 0 1.2-.16l.69 3.22a7.82 7.82 0 0 1-2.42.4 6.7 6.7 0 0 1-2.78-.46 4.35 4.35 0 0 1-1.97-1.61 4.84 4.84 0 0 1-.7-2.73v-17.07Zm18.54 21.98a9.03 9.03 0 0 1-4.54-1.09 7.4 7.4 0 0 1-2.92-3.11 10.45 10.45 0 0 1-1.02-4.76c0-1.8.34-3.38 1.02-4.73a7.7 7.7 0 0 1 7.24-4.33c1.08 0 2.09.17 3.05.52.96.34 1.81.87 2.54 1.6a7.44 7.44 0 0 1 1.75 2.74c.43 1.1.64 2.43.64 3.96v1.26h-14.31v-2.77h10.36c0-.8-.17-1.5-.51-2.1a3.74 3.74 0 0 0-3.46-2c-.84 0-1.58.2-2.22.6a4.32 4.32 0 0 0-2.02 3.75v2.42c0 1.01.18 1.88.56 2.6.37.73.89 1.28 1.55 1.67.67.38 1.45.57 2.34.57.6 0 1.14-.09 1.63-.25.48-.18.9-.43 1.26-.76.36-.34.62-.75.81-1.24l3.84.43a5.99 5.99 0 0 1-1.39 2.66 6.74 6.74 0 0 1-2.59 1.75c-1.05.4-2.26.61-3.61.61Zm11.24 6.2v-24h4.04v2.9h.24c.21-.43.51-.88.9-1.36.39-.48.91-.9 1.57-1.24.66-.35 1.5-.52 2.52-.52a6.65 6.65 0 0 1 6.24 4.07c.64 1.33.97 2.97.97 4.9 0 1.92-.32 3.55-.95 4.9a7.15 7.15 0 0 1-2.57 3.06 6.59 6.59 0 0 1-3.68 1.06 5.04 5.04 0 0 1-4.08-1.7c-.39-.49-.7-.94-.92-1.36h-.17v9.3h-4.11Zm4.03-15.27c0 1.13.16 2.12.48 2.97.33.85.79 1.51 1.4 1.99.61.47 1.35.7 2.22.7a3.6 3.6 0 0 0 2.29-.73 4.5 4.5 0 0 0 1.38-2 8.3 8.3 0 0 0 .48-2.93c0-1.08-.15-2.04-.46-2.88a4.36 4.36 0 0 0-1.39-1.98 3.63 3.63 0 0 0-2.3-.72 3.6 3.6 0 0 0-2.23.7 4.23 4.23 0 0 0-1.4 1.94 8.43 8.43 0 0 0-.47 2.94Zm-425.5 24.46V443h-4.11v-23.27h4.11Zm4.23 23.27v-17.45h4.12V443h-4.12Zm2.07-19.93a2.4 2.4 0 0 1-1.68-.65c-.47-.44-.7-.97-.7-1.58 0-.62.23-1.15.7-1.58a2.38 2.38 0 0 1 1.68-.66c.66 0 1.22.22 1.68.66.47.43.71.96.71 1.58 0 .62-.24 1.14-.71 1.58-.46.43-1.02.65-1.68.65Zm10.03 14.45-.01-4.96h.66l6.27-7.01h4.8l-7.71 8.59h-.85l-3.16 3.38Zm-3.75 5.48v-23.27h4.11V443h-4.11Zm10.95 0-5.68-7.94 2.77-2.9 7.83 10.84h-4.92Zm14.27.34a8.97 8.97 0 0 1-4.53-1.09 7.4 7.4 0 0 1-2.92-3.11 10.45 10.45 0 0 1-1.02-4.76c0-1.8.34-3.38 1.02-4.73a7.7 7.7 0 0 1 7.24-4.33c1.07 0 2.09.17 3.04.52.97.34 1.81.87 2.55 1.6a7.44 7.44 0 0 1 1.75 2.74c.42 1.1.64 2.43.64 3.96v1.26h-14.31v-2.77h10.36c0-.8-.18-1.5-.51-2.1a3.7 3.7 0 0 0-1.4-1.47 3.92 3.92 0 0 0-2.06-.54 4 4 0 0 0-2.22.62c-.64.4-1.13.93-1.49 1.59a4.47 4.47 0 0 0-.53 2.14v2.43c0 1.01.18 1.88.55 2.6.37.73.89 1.28 1.56 1.67.67.38 1.45.57 2.34.57.6 0 1.14-.09 1.63-.25a3.2 3.2 0 0 0 2.06-2l3.85.43a6.09 6.09 0 0 1-1.39 2.66 6.82 6.82 0 0 1-2.59 1.75c-1.05.4-2.26.61-3.62.61Zm24.21.01c-1.11 0-2.11-.2-2.99-.59-.88-.4-1.58-1-2.09-1.77a5.17 5.17 0 0 1-.76-2.89c0-.98.18-1.8.54-2.44.36-.65.86-1.16 1.49-1.55a7.57 7.57 0 0 1 2.12-.87c.8-.2 1.62-.35 2.47-.44 1.02-.11 1.85-.2 2.49-.29a3.7 3.7 0 0 0 1.39-.4c.29-.2.44-.49.44-.88v-.07a2.6 2.6 0 0 0-.76-1.99c-.51-.47-1.24-.7-2.2-.7-1 0-1.8.22-2.39.65-.59.44-.98.96-1.19 1.56l-3.84-.54a6.28 6.28 0 0 1 4.06-4.28 10.86 10.86 0 0 1 5.85-.25c.84.2 1.6.53 2.29.98a4.94 4.94 0 0 1 1.66 1.83c.42.77.63 1.74.63 2.9V443h-3.95v-2.4h-.14a4.93 4.93 0 0 1-2.75 2.38c-.67.25-1.46.37-2.37.37Zm1.06-3.02c.83 0 1.55-.16 2.15-.49a3.62 3.62 0 0 0 1.4-1.32c.33-.54.5-1.14.5-1.78v-2.06c-.13.1-.35.2-.66.3-.3.09-.64.17-1.02.24l-1.13.18-.96.13c-.62.09-1.17.22-1.65.41-.49.2-.87.46-1.15.8-.28.33-.42.76-.42 1.3 0 .75.28 1.32.83 1.71a3.6 3.6 0 0 0 2.11.58Zm24.34-20.6V443h-4.11v-23.27h4.11Zm11.96 23.61a9.03 9.03 0 0 1-4.54-1.09 7.4 7.4 0 0 1-2.92-3.11 10.45 10.45 0 0 1-1.02-4.76c0-1.8.34-3.38 1.02-4.73a7.7 7.7 0 0 1 7.24-4.33c1.08 0 2.09.17 3.05.52.96.34 1.81.87 2.54 1.6a7.44 7.44 0 0 1 1.75 2.74c.43 1.1.64 2.43.64 3.96v1.26h-14.31v-2.77h10.37a4.38 4.38 0 0 0-.52-2.1 3.74 3.74 0 0 0-3.46-2c-.84 0-1.58.2-2.22.6a4.32 4.32 0 0 0-2.02 3.75v2.42c0 1.01.19 1.88.56 2.6.37.73.89 1.28 1.55 1.67.67.38 1.45.57 2.34.57.6 0 1.14-.09 1.63-.25.48-.18.9-.43 1.26-.76.36-.34.63-.75.81-1.24l3.84.43a5.99 5.99 0 0 1-1.39 2.66 6.74 6.74 0 0 1-2.59 1.75c-1.05.4-2.26.61-3.61.61Zm18.83 6.57c-1.48 0-2.75-.2-3.81-.6a6.7 6.7 0 0 1-2.55-1.6 5.57 5.57 0 0 1-1.35-2.21l3.71-.9c.17.34.41.68.73 1.01.32.34.74.63 1.28.84a5.4 5.4 0 0 0 2.06.35c1.16 0 2.13-.29 2.9-.86.76-.56 1.14-1.48 1.14-2.77v-3.3h-.2c-.21.42-.52.85-.93 1.3-.4.45-.94.82-1.61 1.13a5.9 5.9 0 0 1-2.48.45 7.18 7.18 0 0 1-3.65-.94 6.7 6.7 0 0 1-2.59-2.84 10.47 10.47 0 0 1-.96-4.75c0-1.92.32-3.54.96-4.86a6.7 6.7 0 0 1 6.25-4.05c1.02 0 1.86.18 2.52.53.67.34 1.2.76 1.59 1.24.39.48.69.93.9 1.35h.23v-2.88h4.05v17.73c0 1.5-.35 2.73-1.07 3.7a6.38 6.38 0 0 1-2.92 2.2c-1.23.49-2.63.73-4.2.73Zm.03-10.39c.87 0 1.62-.2 2.23-.63a3.96 3.96 0 0 0 1.4-1.83c.32-.8.48-1.75.48-2.87 0-1.1-.16-2.06-.48-2.88a4.08 4.08 0 0 0-1.39-1.92c-.6-.47-1.35-.7-2.24-.7-.91 0-1.68.24-2.29.72a4.3 4.3 0 0 0-1.39 1.96 7.98 7.98 0 0 0-.46 2.82c0 1.07.15 2 .46 2.81.32.8.79 1.42 1.4 1.86.62.44 1.38.66 2.28.66Zm19.99 3.82c-1.7 0-3.18-.37-4.43-1.12a7.64 7.64 0 0 1-2.91-3.15 10.37 10.37 0 0 1-1.02-4.73c0-1.8.34-3.38 1.02-4.74a7.63 7.63 0 0 1 2.91-3.16 8.46 8.46 0 0 1 4.43-1.12c1.71 0 3.18.37 4.43 1.12a7.54 7.54 0 0 1 2.9 3.16 10.32 10.32 0 0 1 1.04 4.74c0 1.8-.35 3.38-1.04 4.73a7.56 7.56 0 0 1-2.9 3.15 8.43 8.43 0 0 1-4.43 1.12Zm.03-3.3c.92 0 1.69-.25 2.31-.76a4.58 4.58 0 0 0 1.39-2.06 8.5 8.5 0 0 0 .47-2.89c0-1.07-.16-2.03-.47-2.9a4.58 4.58 0 0 0-1.39-2.08 3.5 3.5 0 0 0-2.31-.77c-.95 0-1.74.26-2.37.77a4.68 4.68 0 0 0-1.4 2.08c-.3.87-.45 1.83-.45 2.9 0 1.06.15 2.02.45 2.89.31.86.78 1.55 1.4 2.06.63.51 1.42.77 2.37.77ZM1466.64 94.9h22.04l21.23 40.1h.91l21.23-40.1h22.04l-33.95 60.2V188h-19.55v-32.9l-33.95-60.2Zm115.03 94.46c-7.18 0-13.36-1.45-18.55-4.36a29.82 29.82 0 0 1-11.9-12.46c-2.79-5.39-4.19-11.77-4.19-19.13 0-7.18 1.4-13.49 4.19-18.91a30.86 30.86 0 0 1 11.77-12.68c5.09-3.03 11.06-4.55 17.91-4.55 4.6 0 8.89.75 12.86 2.23 4 1.45 7.49 3.65 10.46 6.6 3 2.93 5.33 6.63 7 11.08 1.66 4.43 2.5 9.6 2.5 15.55v5.31h-58.96v-12h40.73c0-2.78-.61-5.25-1.82-7.4a12.97 12.97 0 0 0-5.05-5.05 14.37 14.37 0 0 0-7.4-1.86c-2.94 0-5.55.68-7.82 2.04-2.24 1.34-4 3.14-5.28 5.41a15.3 15.3 0 0 0-1.95 7.5v11.41c0 3.45.64 6.44 1.91 8.95a13.98 13.98 0 0 0 5.5 5.82 16.55 16.55 0 0 0 8.41 2.05c2.15 0 4.12-.3 5.91-.91 1.79-.6 3.32-1.51 4.59-2.73a11.93 11.93 0 0 0 2.91-4.45l17.91 1.18a24.54 24.54 0 0 1-5.59 11.27 28.13 28.13 0 0 1-10.82 7.46c-4.4 1.76-9.47 2.63-15.23 2.63Zm64.59-.04c-4.45 0-8.42-.78-11.91-2.32a19.2 19.2 0 0 1-8.27-6.96c-2-3.08-3-6.93-3-11.54 0-3.88.71-7.14 2.14-9.77a17.28 17.28 0 0 1 5.81-6.37 28.33 28.33 0 0 1 8.37-3.63 63.6 63.6 0 0 1 9.91-1.73c4.06-.42 7.33-.82 9.81-1.18 2.49-.4 4.29-.97 5.41-1.73a3.78 3.78 0 0 0 1.69-3.36v-.27c0-2.88-.91-5.11-2.73-6.69-1.79-1.57-4.33-2.36-7.64-2.36-3.48 0-6.26.77-8.32 2.32a10.69 10.69 0 0 0-4.09 5.73l-17.91-1.46c.91-4.24 2.7-7.9 5.37-11a25.65 25.65 0 0 1 10.32-7.18c4.24-1.7 9.15-2.55 14.72-2.55 3.88 0 7.59.46 11.14 1.37 3.58.9 6.74 2.31 9.5 4.22a20.56 20.56 0 0 1 6.59 7.37c1.61 2.97 2.41 6.53 2.41 10.68V188h-18.36v-9.68h-.55a19.67 19.67 0 0 1-4.5 5.77 20.91 20.91 0 0 1-6.77 3.87c-2.64.9-5.68 1.36-9.14 1.36Zm5.55-13.36c2.85 0 5.36-.57 7.54-1.69 2.18-1.15 3.9-2.7 5.14-4.63a11.97 11.97 0 0 0 1.86-6.6v-7.4c-.6.39-1.44.75-2.5 1.09-1.03.3-2.19.59-3.5.86-1.3.24-2.6.47-3.91.68l-3.54.5c-2.27.34-4.26.87-5.96 1.6a9.56 9.56 0 0 0-3.95 2.95 7.2 7.2 0 0 0-1.41 4.54c0 2.64.95 4.65 2.86 6.05 1.94 1.36 4.4 2.05 7.37 2.05Zm48.79 38.22v-96h19.09v11.73h.87a25.5 25.5 0 0 1 3.68-5.73 19.5 19.5 0 0 1 6.36-4.9c2.64-1.34 5.91-2 9.82-2 5.09 0 9.79 1.33 14.09 4 4.3 2.63 7.74 6.61 10.32 11.95 2.58 5.3 3.86 11.95 3.86 19.95 0 7.79-1.25 14.36-3.77 19.73-2.48 5.33-5.88 9.38-10.18 12.13a26.12 26.12 0 0 1-14.36 4.1c-3.76 0-6.96-.63-9.6-1.87a19.8 19.8 0 0 1-6.4-4.68 23.71 23.71 0 0 1-3.82-5.77h-.59v37.36h-19.37Zm18.96-61.09c0 4.15.57 7.77 1.72 10.87a16.22 16.22 0 0 0 5 7.22 12.6 12.6 0 0 0 7.96 2.55c3.15 0 5.82-.87 8-2.6a16.13 16.13 0 0 0 4.95-7.27 31.06 31.06 0 0 0 1.73-10.77c0-4.03-.56-7.58-1.68-10.63a15.78 15.78 0 0 0-4.96-7.19 12.54 12.54 0 0 0-8.04-2.59c-3.15 0-5.82.83-8 2.5-2.15 1.67-3.8 4.03-4.96 7.1a30.73 30.73 0 0 0-1.72 10.81Z" fill="#fff"/>
</svg>