<svg width="512" height="512" viewBox="0 0 512 512" fill="none" xmlns="http://www.w3.org/2000/svg">
	<path d="M62.9907 92.792C57.2414 72.9029 77.5932 55.5076 96.2364 64.3758L422.326 219.49C438.013 226.953 440.798 248.178 427.573 259.482L202.045 452.249C188.82 463.553 168.389 457.409 163.552 440.673L62.9907 92.792Z" fill="#59CAFC" />
	<circle cx="72" cy="72" r="48" fill="#FF6E83" />
	<path d="M278.196 87.7179C284.311 73.5143 300.783 66.9571 314.986 73.0719L410.51 114.196C424.714 120.311 431.271 136.783 425.156 150.986L384.032 246.51C377.917 260.714 361.445 267.271 347.242 261.156L251.718 220.032C237.514 213.917 230.957 197.445 237.072 183.242L278.196 87.7179Z" fill="#BEA4FF" />
	<path d="M170.175 340.252C185.838 326.145 210.882 333.75 216.057 354.184L245.169 469.147C250.519 490.274 230.745 509.145 209.891 502.812L92.6579 467.215C71.8038 460.882 65.8605 434.202 82.0549 419.617L170.175 340.252Z" fill="#FFB636" />
</svg>
